<svg version="1.2" xmlns="http://www.w3.org/2000/svg" viewBox="0 0 56 80" width="88" height="88">
	<title>marker-svg</title>
	<style>
		.s0 { fill: #ffffff } 
	</style>
	<g id="ic_location_on_48px">
		<path id="Path_7199" fill-rule="evenodd" class="s0" d="m38.7 2.1c3.4 1.4 6.5 3.5 9.1 6.1 2.6 2.6 4.7 5.7 6.1 9.1 1.4 3.4 2.1 7 2.1 10.7 0 21-28 52-28 52 0 0-28-31-28-52 0-3.7 0.7-7.3 2.1-10.7 1.4-3.4 3.5-6.5 6.1-9.1 2.6-2.6 5.7-4.7 9.1-6.1 3.4-1.4 7-2.1 10.7-2.1 3.7 0 7.3 0.7 10.7 2.1zm-6.9 35.1c1.2-0.5 2.3-1.2 3.3-2.1 0.9-1 1.6-2.1 2.1-3.3 0.5-1.2 0.8-2.5 0.8-3.8 0-4-2.4-7.7-6.2-9.2-3.7-1.6-8-0.7-10.9 2.1-2.8 2.9-3.7 7.2-2.1 10.9 1.5 3.8 5.2 6.2 9.2 6.2 1.3 0 2.6-0.3 3.8-0.8z"/>
	</g>
</svg>